<mxfile host="app.diagrams.net" modified="2021-12-23T11:11:53.984Z" agent="5.0 (Macintosh; Intel Mac OS X 10_15_7) AppleWebKit/537.36 (KHTML, like Gecko) Chrome/96.0.4664.110 Safari/537.36" etag="CsQWcYqtr0b9KawFABk2" version="16.0.3" type="github">
  <diagram id="Aoz_ehau8xBS0XFifxai" name="Page-1">
    <mxGraphModel dx="2082" dy="811" grid="1" gridSize="10" guides="1" tooltips="1" connect="1" arrows="1" fold="1" page="1" pageScale="1" pageWidth="827" pageHeight="1169" math="0" shadow="0">
      <root>
        <mxCell id="0" />
        <mxCell id="1" parent="0" />
        <mxCell id="UP7DhOcPIyhW6vpGw8zo-1" value="&lt;font style=&quot;font-size: 18px&quot;&gt;安全代理(set.sg)&lt;/font&gt;" style="rounded=0;whiteSpace=wrap;html=1;fillColor=#f5f5f5;fontColor=#333333;strokeColor=#666666;" parent="1" vertex="1">
          <mxGeometry x="190" y="20" width="480" height="70" as="geometry" />
        </mxCell>
        <mxCell id="UP7DhOcPIyhW6vpGw8zo-2" value="" style="endArrow=none;dashed=1;html=1;rounded=0;" parent="1" edge="1">
          <mxGeometry width="50" height="50" relative="1" as="geometry">
            <mxPoint x="130" y="121" as="sourcePoint" />
            <mxPoint x="750" y="121" as="targetPoint" />
          </mxGeometry>
        </mxCell>
        <mxCell id="UP7DhOcPIyhW6vpGw8zo-3" value="&lt;font style=&quot;font-size: 18px&quot;&gt;外部&lt;/font&gt;" style="text;html=1;strokeColor=none;fillColor=none;align=center;verticalAlign=middle;whiteSpace=wrap;rounded=0;" parent="1" vertex="1">
          <mxGeometry y="25" width="180" height="60" as="geometry" />
        </mxCell>
        <mxCell id="UP7DhOcPIyhW6vpGw8zo-4" value="&lt;font style=&quot;font-size: 18px&quot;&gt;内部&lt;/font&gt;" style="text;html=1;strokeColor=none;fillColor=none;align=center;verticalAlign=middle;whiteSpace=wrap;rounded=0;" parent="1" vertex="1">
          <mxGeometry x="-20" y="300" width="180" height="60" as="geometry" />
        </mxCell>
        <mxCell id="UP7DhOcPIyhW6vpGw8zo-5" value="atlas-cheat&lt;br&gt;(set.sg)" style="rounded=0;whiteSpace=wrap;html=1;fontSize=18;fillColor=#f5f5f5;fontColor=#333333;strokeColor=#666666;" parent="1" vertex="1">
          <mxGeometry x="350" y="140" width="160" height="60" as="geometry" />
        </mxCell>
        <mxCell id="UP7DhOcPIyhW6vpGw8zo-6" value="mysql" style="shape=cylinder3;whiteSpace=wrap;html=1;boundedLbl=1;backgroundOutline=1;size=15;fontSize=18;fillColor=#dae8fc;strokeColor=#6c8ebf;" parent="1" vertex="1">
          <mxGeometry x="430" y="380" width="60" height="80" as="geometry" />
        </mxCell>
        <mxCell id="UP7DhOcPIyhW6vpGw8zo-7" value="redis" style="shape=cylinder3;whiteSpace=wrap;html=1;boundedLbl=1;backgroundOutline=1;size=15;fontSize=18;fillColor=#dae8fc;strokeColor=#6c8ebf;" parent="1" vertex="1">
          <mxGeometry x="650" y="380" width="60" height="80" as="geometry" />
        </mxCell>
        <mxCell id="UP7DhOcPIyhW6vpGw8zo-8" value="es" style="shape=cylinder3;whiteSpace=wrap;html=1;boundedLbl=1;backgroundOutline=1;size=15;fontSize=18;fillColor=#dae8fc;strokeColor=#6c8ebf;" parent="1" vertex="1">
          <mxGeometry x="320" y="380" width="60" height="80" as="geometry" />
        </mxCell>
        <mxCell id="UP7DhOcPIyhW6vpGw8zo-9" value="feature-portal（set.sg）" style="rounded=0;whiteSpace=wrap;html=1;fontSize=18;fillColor=#f5f5f5;fontColor=#333333;strokeColor=#666666;" parent="1" vertex="1">
          <mxGeometry x="200" y="140" width="130" height="60" as="geometry" />
        </mxCell>
        <mxCell id="UP7DhOcPIyhW6vpGw8zo-10" value="" style="rounded=0;whiteSpace=wrap;html=1;fontSize=18;fillColor=#f5f5f5;fontColor=#333333;strokeColor=#666666;" parent="1" vertex="1">
          <mxGeometry x="770" y="25" width="50" height="20" as="geometry" />
        </mxCell>
        <mxCell id="UP7DhOcPIyhW6vpGw8zo-11" value="" style="rounded=0;whiteSpace=wrap;html=1;fontSize=18;fillColor=#dae8fc;strokeColor=#6c8ebf;" parent="1" vertex="1">
          <mxGeometry x="770" y="55" width="50" height="20" as="geometry" />
        </mxCell>
        <mxCell id="UP7DhOcPIyhW6vpGw8zo-12" value="&lt;font style=&quot;font-size: 14px&quot;&gt;国内&lt;/font&gt;" style="text;html=1;strokeColor=none;fillColor=none;align=center;verticalAlign=middle;whiteSpace=wrap;rounded=0;" parent="1" vertex="1">
          <mxGeometry x="830" y="20" width="50" height="25" as="geometry" />
        </mxCell>
        <mxCell id="UP7DhOcPIyhW6vpGw8zo-13" value="&lt;font style=&quot;font-size: 14px&quot;&gt;新加坡&lt;/font&gt;" style="text;html=1;strokeColor=none;fillColor=none;align=center;verticalAlign=middle;whiteSpace=wrap;rounded=0;" parent="1" vertex="1">
          <mxGeometry x="830" y="52.5" width="50" height="25" as="geometry" />
        </mxCell>
        <mxCell id="UP7DhOcPIyhW6vpGw8zo-14" value="" style="endArrow=classic;html=1;rounded=0;fontSize=14;entryX=0.5;entryY=0;entryDx=0;entryDy=0;" parent="1" source="UP7DhOcPIyhW6vpGw8zo-1" target="UP7DhOcPIyhW6vpGw8zo-5" edge="1">
          <mxGeometry width="50" height="50" relative="1" as="geometry">
            <mxPoint x="370" y="320" as="sourcePoint" />
            <mxPoint x="420" y="270" as="targetPoint" />
          </mxGeometry>
        </mxCell>
        <mxCell id="UP7DhOcPIyhW6vpGw8zo-15" value="flink" style="rounded=0;whiteSpace=wrap;html=1;fontSize=14;fillColor=#dae8fc;strokeColor=#6c8ebf;" parent="1" vertex="1">
          <mxGeometry x="530" y="140" width="150" height="60" as="geometry" />
        </mxCell>
        <mxCell id="UP7DhOcPIyhW6vpGw8zo-20" value="" style="endArrow=classic;html=1;rounded=0;fontSize=14;entryX=0.5;entryY=0;entryDx=0;entryDy=0;exitX=0.5;exitY=1;exitDx=0;exitDy=0;entryPerimeter=0;" parent="1" source="UP7DhOcPIyhW6vpGw8zo-5" target="UP7DhOcPIyhW6vpGw8zo-6" edge="1">
          <mxGeometry width="50" height="50" relative="1" as="geometry">
            <mxPoint x="510" y="260" as="sourcePoint" />
            <mxPoint x="570" y="200" as="targetPoint" />
          </mxGeometry>
        </mxCell>
        <mxCell id="UP7DhOcPIyhW6vpGw8zo-21" value="" style="endArrow=classic;html=1;rounded=0;fontSize=14;entryX=0.5;entryY=0;entryDx=0;entryDy=0;exitX=0.5;exitY=1;exitDx=0;exitDy=0;entryPerimeter=0;" parent="1" source="UP7DhOcPIyhW6vpGw8zo-5" target="UP7DhOcPIyhW6vpGw8zo-7" edge="1">
          <mxGeometry width="50" height="50" relative="1" as="geometry">
            <mxPoint x="630" y="230" as="sourcePoint" />
            <mxPoint x="530" y="430" as="targetPoint" />
          </mxGeometry>
        </mxCell>
        <mxCell id="UP7DhOcPIyhW6vpGw8zo-22" value="" style="endArrow=classic;html=1;rounded=0;fontSize=14;entryX=0.5;entryY=0;entryDx=0;entryDy=0;exitX=0.5;exitY=1;exitDx=0;exitDy=0;entryPerimeter=0;" parent="1" source="UP7DhOcPIyhW6vpGw8zo-9" target="iqLflfFOKN-d8s246HwW-3" edge="1">
          <mxGeometry width="50" height="50" relative="1" as="geometry">
            <mxPoint x="580" y="210" as="sourcePoint" />
            <mxPoint x="240" y="390" as="targetPoint" />
          </mxGeometry>
        </mxCell>
        <mxCell id="UP7DhOcPIyhW6vpGw8zo-23" value="" style="endArrow=classic;html=1;rounded=0;fontSize=14;entryX=0.145;entryY=0;entryDx=0;entryDy=4.35;exitX=0.5;exitY=1;exitDx=0;exitDy=0;entryPerimeter=0;" parent="1" source="UP7DhOcPIyhW6vpGw8zo-9" target="UP7DhOcPIyhW6vpGw8zo-8" edge="1">
          <mxGeometry width="50" height="50" relative="1" as="geometry">
            <mxPoint x="310" y="210" as="sourcePoint" />
            <mxPoint x="285" y="440" as="targetPoint" />
          </mxGeometry>
        </mxCell>
        <mxCell id="UP7DhOcPIyhW6vpGw8zo-24" value="" style="endArrow=classic;html=1;rounded=0;fontSize=14;entryX=0.145;entryY=0;entryDx=0;entryDy=4.35;exitX=0.5;exitY=1;exitDx=0;exitDy=0;entryPerimeter=0;" parent="1" source="UP7DhOcPIyhW6vpGw8zo-9" target="UP7DhOcPIyhW6vpGw8zo-6" edge="1">
          <mxGeometry width="50" height="50" relative="1" as="geometry">
            <mxPoint x="310" y="210" as="sourcePoint" />
            <mxPoint x="428.6999999999998" y="434.3499999999999" as="targetPoint" />
          </mxGeometry>
        </mxCell>
        <mxCell id="UP7DhOcPIyhW6vpGw8zo-26" value="" style="endArrow=classic;html=1;rounded=0;fontSize=14;entryX=0.5;entryY=0;entryDx=0;entryDy=0;exitX=0.5;exitY=1;exitDx=0;exitDy=0;entryPerimeter=0;" parent="1" source="UP7DhOcPIyhW6vpGw8zo-15" target="UP7DhOcPIyhW6vpGw8zo-7" edge="1">
          <mxGeometry width="50" height="50" relative="1" as="geometry">
            <mxPoint x="440" y="210" as="sourcePoint" />
            <mxPoint x="690" y="390" as="targetPoint" />
          </mxGeometry>
        </mxCell>
        <mxCell id="UP7DhOcPIyhW6vpGw8zo-27" value="atta" style="shape=cylinder3;whiteSpace=wrap;html=1;boundedLbl=1;backgroundOutline=1;size=15;fontSize=18;fillColor=#f5f5f5;strokeColor=#666666;fontColor=#333333;" parent="1" vertex="1">
          <mxGeometry x="540" y="380" width="60" height="80" as="geometry" />
        </mxCell>
        <mxCell id="UP7DhOcPIyhW6vpGw8zo-28" value="" style="endArrow=classic;html=1;rounded=0;fontSize=14;entryX=0.5;entryY=0;entryDx=0;entryDy=0;exitX=0.5;exitY=1;exitDx=0;exitDy=0;entryPerimeter=0;" parent="1" source="UP7DhOcPIyhW6vpGw8zo-5" target="UP7DhOcPIyhW6vpGw8zo-27" edge="1">
          <mxGeometry width="50" height="50" relative="1" as="geometry">
            <mxPoint x="440" y="210" as="sourcePoint" />
            <mxPoint x="480" y="390" as="targetPoint" />
          </mxGeometry>
        </mxCell>
        <mxCell id="UP7DhOcPIyhW6vpGw8zo-30" value="007" style="shape=cylinder3;whiteSpace=wrap;html=1;boundedLbl=1;backgroundOutline=1;size=15;fontSize=18;fillColor=#f5f5f5;strokeColor=#666666;fontColor=#333333;" parent="1" vertex="1">
          <mxGeometry x="760" y="380" width="60" height="80" as="geometry" />
        </mxCell>
        <mxCell id="UP7DhOcPIyhW6vpGw8zo-31" value="" style="endArrow=classic;html=1;rounded=0;fontSize=14;entryX=0.5;entryY=0;entryDx=0;entryDy=0;exitX=0.5;exitY=1;exitDx=0;exitDy=0;entryPerimeter=0;" parent="1" source="UP7DhOcPIyhW6vpGw8zo-15" target="UP7DhOcPIyhW6vpGw8zo-30" edge="1">
          <mxGeometry width="50" height="50" relative="1" as="geometry">
            <mxPoint x="615" y="210" as="sourcePoint" />
            <mxPoint x="630" y="390" as="targetPoint" />
          </mxGeometry>
        </mxCell>
        <mxCell id="UP7DhOcPIyhW6vpGw8zo-32" value="" style="endArrow=classic;html=1;rounded=0;fontSize=14;entryX=0.145;entryY=0;entryDx=0;entryDy=4.35;exitX=0.5;exitY=1;exitDx=0;exitDy=0;entryPerimeter=0;" parent="1" source="UP7DhOcPIyhW6vpGw8zo-5" target="UP7DhOcPIyhW6vpGw8zo-30" edge="1">
          <mxGeometry width="50" height="50" relative="1" as="geometry">
            <mxPoint x="615" y="210" as="sourcePoint" />
            <mxPoint x="720" y="390" as="targetPoint" />
          </mxGeometry>
        </mxCell>
        <mxCell id="UP7DhOcPIyhW6vpGw8zo-33" value="" style="endArrow=classic;html=1;rounded=0;fontSize=14;entryX=0;entryY=0;entryDx=0;entryDy=15;exitX=0.5;exitY=1;exitDx=0;exitDy=0;entryPerimeter=0;" parent="1" source="UP7DhOcPIyhW6vpGw8zo-9" target="UP7DhOcPIyhW6vpGw8zo-30" edge="1">
          <mxGeometry width="50" height="50" relative="1" as="geometry">
            <mxPoint x="440" y="210" as="sourcePoint" />
            <mxPoint x="698.6999999999998" y="394.3499999999999" as="targetPoint" />
          </mxGeometry>
        </mxCell>
        <mxCell id="iqLflfFOKN-d8s246HwW-1" value="cls" style="shape=cylinder3;whiteSpace=wrap;html=1;boundedLbl=1;backgroundOutline=1;size=15;fontSize=18;fillColor=#dae8fc;strokeColor=#6c8ebf;" parent="1" vertex="1">
          <mxGeometry x="600" y="520" width="60" height="80" as="geometry" />
        </mxCell>
        <mxCell id="iqLflfFOKN-d8s246HwW-3" value="rainbow" style="shape=cylinder3;whiteSpace=wrap;html=1;boundedLbl=1;backgroundOutline=1;size=15;fontSize=18;fillColor=#f5f5f5;strokeColor=#666666;fontColor=#333333;" parent="1" vertex="1">
          <mxGeometry x="220" y="380" width="60" height="80" as="geometry" />
        </mxCell>
        <mxCell id="tiscPnwOCYZWlDYD2s4L-1" value="虫洞" style="shape=cylinder3;whiteSpace=wrap;html=1;boundedLbl=1;backgroundOutline=1;size=15;fontSize=18;fillColor=#f5f5f5;strokeColor=#666666;fontColor=#333333;" vertex="1" parent="1">
          <mxGeometry x="490" y="520" width="60" height="80" as="geometry" />
        </mxCell>
        <mxCell id="tiscPnwOCYZWlDYD2s4L-2" value="" style="endArrow=classic;html=1;rounded=0;exitX=0.5;exitY=1;exitDx=0;exitDy=0;exitPerimeter=0;entryX=0.5;entryY=0;entryDx=0;entryDy=0;entryPerimeter=0;" edge="1" parent="1" source="UP7DhOcPIyhW6vpGw8zo-27" target="tiscPnwOCYZWlDYD2s4L-1">
          <mxGeometry width="50" height="50" relative="1" as="geometry">
            <mxPoint x="340" y="550" as="sourcePoint" />
            <mxPoint x="390" y="500" as="targetPoint" />
          </mxGeometry>
        </mxCell>
        <mxCell id="tiscPnwOCYZWlDYD2s4L-3" value="" style="endArrow=classic;html=1;rounded=0;exitX=0.5;exitY=1;exitDx=0;exitDy=0;exitPerimeter=0;entryX=0.5;entryY=0;entryDx=0;entryDy=0;entryPerimeter=0;" edge="1" parent="1" source="UP7DhOcPIyhW6vpGw8zo-27" target="iqLflfFOKN-d8s246HwW-1">
          <mxGeometry width="50" height="50" relative="1" as="geometry">
            <mxPoint x="580" y="470" as="sourcePoint" />
            <mxPoint x="530" y="530" as="targetPoint" />
          </mxGeometry>
        </mxCell>
      </root>
    </mxGraphModel>
  </diagram>
</mxfile>
